# xmcd CD database file
#
# Track frame offsets:
#	150
#	15436
#	30117
#	45728
#	60986
#	75467
#	92266
#	107783
#	124168
#	139666
#	153291
#
# Disc length: 2246 seconds
#
# Revision: 0
# Processed by: cddbd v1.5.1PL0 Copyright (c) Steve Scherf et al.
# Submitted via: Feurio! 1.68 - http://www.feurio.com
#
DISCID=7008c40b
DTITLE=Olaf Berger - Du und ich
DYEAR=1900
DGENRE=misc
TTITLE0=Baila Baila (Radio Version)
TTITLE1=Du und ich /Duett mit Tochter Maria) (Radio Version)
TTITLE2=Ich denk immer noch an dich
TTITLE3=Mitten in mein Herz
TTITLE4=Wenn der Sommer neu erwacht
TTITLE5=Ich krieg' von dir einfach nie genug
TTITLE6=Zu spät
TTITLE7=Solang' uns das Feuer verbrennt
TTITLE8=Wenn ich dich berühr'
TTITLE9=Lass mich einmal noch ....
TTITLE10=Baila Baila (Spanish Version)
EXTD=
EXTT0=
EXTT1=
EXTT2=
EXTT3=
EXTT4=
EXTT5=
EXTT6=
EXTT7=
EXTT8=
EXTT9=
EXTT10=
PLAYORDER=
